<svg xmlns="http://www.w3.org/2000/svg" xmlns:xlink="http://www.w3.org/1999/xlink" id="visual" viewBox="0 0 1920 1080" width="1920" height="1080" version="1.1"><g transform="translate(995.2509569617814 492.2384773152626)"><path d="M226.5 -380.9C297.4 -351.5 361.3 -298.5 406.4 -231.1C451.5 -163.7 477.7 -81.8 504.3 15.3C530.9 112.5 557.7 225 514 294.9C470.4 364.7 356.2 391.9 258.8 441C161.3 490.1 80.7 561.1 -4.6 569C-89.8 576.9 -179.7 521.9 -267.1 467C-354.6 412.2 -439.7 357.6 -505 279.8C-570.2 202 -615.6 101 -606.5 5.3C-597.4 -90.5 -533.8 -181 -474.2 -268.5C-414.5 -355.9 -358.8 -440.4 -280.4 -465.4C-202 -490.5 -101 -456.2 -11.6 -436.1C77.8 -416.1 155.7 -410.3 226.5 -380.9" fill="#6e0024"/></g></svg>